<svg width="63" height="12" viewBox="0 0 63 12" fill="none" xmlns="http://www.w3.org/2000/svg">
<g clip-path="url(#clip0_0_669)">
<g clip-path="url(#clip1_0_669)">
<g clip-path="url(#clip2_0_669)">
<path d="M11.1365 4.53003C11.0446 4.24568 10.7917 4.04391 10.4938 4.01752L7.72857 3.77914L6.6448 1.20125C6.52987 0.924558 6.25914 0.744071 5.95947 0.744071C5.65979 0.744071 5.38906 0.924558 5.27413 1.20125L4.19376 3.77914L1.42517 4.01922C1.12635 4.04391 0.871792 4.24568 0.778995 4.53088C0.686197 4.81608 0.773887 5.12938 1.0012 5.32519L3.10148 7.16071L2.47233 9.88673C2.40422 10.1779 2.51745 10.4818 2.75924 10.6581C3.00187 10.8343 3.32539 10.8479 3.58164 10.6938L5.95606 9.24992L8.33559 10.6938C8.59185 10.8479 8.91621 10.8343 9.15799 10.6581C9.40063 10.4818 9.51386 10.1779 9.44575 9.88673L8.8166 7.15815L10.9169 5.32519C11.1433 5.12853 11.2302 4.81523 11.1365 4.53003ZM10.4282 4.76245L8.32878 6.59456C8.1202 6.7759 8.0291 7.05769 8.0921 7.32672L8.72295 10.0562L6.34513 8.61311C6.10931 8.46923 5.81218 8.46923 5.57551 8.61311L3.20024 10.0562L3.82683 7.32842C3.88983 7.0594 3.79874 6.77845 3.59101 6.59711L1.48987 4.765V4.7616L4.25762 4.52152C4.5326 4.49768 4.77268 4.32315 4.8791 4.06775L5.95947 1.49411L7.03983 4.06775C7.14625 4.32315 7.38633 4.49768 7.66132 4.52237L10.4291 4.7616V4.76415L10.4282 4.76245Z" fill="white" fill-opacity="0.2"/>
</g>
</g>
<g clip-path="url(#clip3_0_669)">
<path fill-rule="evenodd" clip-rule="evenodd" d="M10.8923 4.17675C11.0066 4.26782 11.0915 4.39048 11.1366 4.52948C11.1826 4.66903 11.1862 4.81906 11.1471 4.96069C11.108 5.10232 11.0279 5.22922 10.9169 5.32544L8.98489 7.01122C8.93408 7.05556 8.89626 7.11286 8.87546 7.17702C8.85467 7.24117 8.85168 7.30977 8.86682 7.37549L9.44564 9.88591C9.47897 10.0286 9.46951 10.1779 9.41843 10.3151C9.36736 10.4524 9.27694 10.5716 9.15849 10.6578C9.04004 10.744 8.8988 10.7933 8.75246 10.7997C8.60611 10.806 8.46114 10.769 8.33569 10.6934L6.14931 9.36744C6.09108 9.33213 6.02428 9.31346 5.95619 9.31346C5.88809 9.31346 5.82129 9.33213 5.76306 9.36744L3.5819 10.6934C3.45647 10.769 3.31155 10.8059 3.16525 10.7996C3.01895 10.7933 2.87776 10.744 2.75933 10.6578C2.6409 10.5717 2.55047 10.4526 2.49936 10.3154C2.44825 10.1781 2.43871 10.0289 2.47195 9.88629L3.05114 7.3781C3.06632 7.31241 3.06339 7.24384 3.04267 7.17968C3.02194 7.11553 2.98419 7.05821 2.93344 7.01383L1.00108 5.32544C0.889931 5.22964 0.809549 5.10315 0.770021 4.96183C0.730494 4.82052 0.733581 4.67068 0.778895 4.53112C0.82421 4.39155 0.909734 4.26848 1.02474 4.17734C1.13974 4.0862 1.27909 4.03106 1.42532 4.01883L3.96926 3.7987C4.03695 3.79283 4.10175 3.76856 4.15663 3.72851C4.21152 3.68846 4.2544 3.63416 4.28065 3.57149L5.27401 1.20149C5.33048 1.06628 5.42568 0.950795 5.54762 0.869566C5.66957 0.788337 5.81283 0.744996 5.95935 0.744996C6.10588 0.744996 6.24913 0.788337 6.37108 0.869566C6.49303 0.950795 6.58822 1.06628 6.64469 1.20149L7.64141 3.57187C7.66776 3.6344 7.71069 3.68854 7.76557 3.72845C7.82045 3.76836 7.88518 3.79252 7.95279 3.79833L10.4938 4.01734C10.6394 4.03022 10.778 4.08566 10.8923 4.17675ZM5.95935 1.49499L5.9601 1.49537V1.49462L5.95935 1.49499Z" fill="#FF541F"/>
</g>
<g clip-path="url(#clip4_0_669)">
<path d="M23.9059 4.53003C23.814 4.24568 23.5611 4.04391 23.2632 4.01752L20.498 3.77914L19.4142 1.20125C19.2993 0.924558 19.0285 0.744071 18.7289 0.744071C18.4292 0.744071 18.1585 0.924558 18.0435 1.20125L16.9632 3.77914L14.1946 4.01922C13.8957 4.04391 13.6412 4.24568 13.5484 4.53088C13.4556 4.81608 13.5433 5.12938 13.7706 5.32519L15.8709 7.16071L15.2417 9.88673C15.1736 10.1779 15.2869 10.4818 15.5286 10.6581C15.7713 10.8343 16.0948 10.8479 16.351 10.6938L18.7255 9.24992L21.105 10.6938C21.3612 10.8479 21.6856 10.8343 21.9274 10.6581C22.17 10.4818 22.2833 10.1779 22.2152 9.88673L21.586 7.15815L23.6863 5.32519C23.9127 5.12853 23.9996 4.81523 23.9059 4.53003ZM23.1976 4.76245L21.0982 6.59456C20.8896 6.7759 20.7985 7.05769 20.8615 7.32672L21.4924 10.0562L19.1145 8.61311C18.8787 8.46923 18.5816 8.46923 18.3449 8.61311L15.9696 10.0562L16.5962 7.32842C16.6592 7.0594 16.5681 6.77845 16.3604 6.59711L14.2593 4.765V4.7616L17.027 4.52152C17.302 4.49768 17.5421 4.32315 17.6485 4.06775L18.7289 1.49411L19.8092 4.06775C19.9157 4.32315 20.1557 4.49768 20.4307 4.52237L23.1985 4.7616V4.76415L23.1976 4.76245Z" fill="white" fill-opacity="0.2"/>
</g>
<path fill-rule="evenodd" clip-rule="evenodd" d="M23.6617 4.1768C23.776 4.26786 23.8609 4.39053 23.906 4.52952C23.952 4.66908 23.9556 4.81911 23.9165 4.96074C23.8774 5.10237 23.7973 5.22927 23.6863 5.32548L21.7543 7.01126C21.7035 7.0556 21.6657 7.11291 21.6449 7.17707C21.6241 7.24122 21.6211 7.30982 21.6362 7.37554L22.215 9.88596C22.2484 10.0286 22.2389 10.1779 22.1878 10.3152C22.1368 10.4525 22.0463 10.5717 21.9279 10.6579C21.8094 10.744 21.6682 10.7934 21.5219 10.7997C21.3755 10.806 21.2305 10.7691 21.1051 10.6935L18.9187 9.36749C18.8605 9.33218 18.7937 9.31351 18.7256 9.31351C18.6575 9.31351 18.5907 9.33218 18.5325 9.36749L16.3513 10.6935C16.2259 10.769 16.081 10.806 15.9347 10.7996C15.7884 10.7933 15.6472 10.744 15.5287 10.6579C15.4103 10.5718 15.3199 10.4526 15.2688 10.3154C15.2176 10.1782 15.2081 10.0289 15.2414 9.88633L15.8205 7.37814C15.8357 7.31246 15.8328 7.24388 15.8121 7.17973C15.7913 7.11558 15.7536 7.05825 15.7028 7.01387L13.7705 5.32548C13.6593 5.22968 13.579 5.10319 13.5394 4.96188C13.4999 4.82057 13.503 4.67073 13.5483 4.53116C13.5936 4.3916 13.6791 4.26853 13.7941 4.17739C13.9091 4.08625 14.0485 4.0311 14.1947 4.01887L16.7387 3.79874C16.8064 3.79287 16.8711 3.7686 16.926 3.72855C16.9809 3.68851 17.0238 3.63421 17.05 3.57154L18.0434 1.20154C18.0999 1.06633 18.1951 0.950842 18.317 0.869613C18.439 0.788384 18.5822 0.745042 18.7288 0.745042C18.8753 0.745042 19.0185 0.788384 19.1405 0.869613C19.2624 0.950842 19.3576 1.06633 19.4141 1.20154L20.4108 3.57191C20.4372 3.63444 20.4801 3.68859 20.535 3.7285C20.5898 3.76841 20.6546 3.79257 20.7222 3.79837L23.2632 4.01738C23.4088 4.03027 23.5474 4.08571 23.6617 4.1768ZM18.7288 1.49504L18.7295 1.49541V1.49467L18.7288 1.49504Z" fill="#FF541F"/>
<g clip-path="url(#clip5_0_669)">
<path d="M36.6753 4.53003C36.5834 4.24568 36.3305 4.04391 36.0326 4.01752L33.2674 3.77914L32.1836 1.20125C32.0687 0.924558 31.7979 0.744071 31.4983 0.744071C31.1986 0.744071 30.9279 0.924558 30.8129 1.20125L29.7326 3.77914L26.964 4.01922C26.6651 4.04391 26.4106 4.24568 26.3178 4.53088C26.225 4.81608 26.3127 5.12938 26.54 5.32519L28.6403 7.16071L28.0111 9.88673C27.943 10.1779 28.0563 10.4818 28.298 10.6581C28.5407 10.8343 28.8642 10.8479 29.1204 10.6938L31.4949 9.24992L33.8744 10.6938C34.1306 10.8479 34.455 10.8343 34.6968 10.6581C34.9394 10.4818 35.0527 10.1779 34.9846 9.88673L34.3554 7.15815L36.4557 5.32519C36.6821 5.12853 36.769 4.81523 36.6753 4.53003ZM35.967 4.76245L33.8676 6.59456C33.659 6.7759 33.5679 7.05769 33.6309 7.32672L34.2618 10.0562L31.8839 8.61311C31.6481 8.46923 31.351 8.46923 31.1143 8.61311L28.739 10.0562L29.3656 7.32842C29.4286 7.0594 29.3375 6.77845 29.1298 6.59711L27.0287 4.765V4.7616L29.7964 4.52152C30.0714 4.49768 30.3115 4.32315 30.4179 4.06775L31.4983 1.49411L32.5786 4.06775C32.6851 4.32315 32.9251 4.49768 33.2001 4.52237L35.9679 4.7616V4.76415L35.967 4.76245Z" fill="white" fill-opacity="0.2"/>
</g>
<path fill-rule="evenodd" clip-rule="evenodd" d="M36.4311 4.17675C36.5454 4.26782 36.6303 4.39048 36.6754 4.52948C36.7214 4.66903 36.725 4.81906 36.6859 4.96069C36.6468 5.10232 36.5667 5.22922 36.4557 5.32544L34.5237 7.01122C34.4729 7.05556 34.4351 7.11286 34.4143 7.17702C34.3935 7.24117 34.3905 7.30977 34.4056 7.37549L34.9844 9.88591C35.0178 10.0286 35.0083 10.1779 34.9572 10.3151C34.9062 10.4524 34.8157 10.5716 34.6973 10.6578C34.5788 10.744 34.4376 10.7933 34.2913 10.7997C34.1449 10.806 33.9999 10.769 33.8745 10.6934L31.6881 9.36744C31.6299 9.33213 31.5631 9.31346 31.495 9.31346C31.4269 9.31346 31.3601 9.33213 31.3019 9.36744L29.1207 10.6934C28.9953 10.769 28.8504 10.8059 28.7041 10.7996C28.5578 10.7933 28.4166 10.744 28.2981 10.6578C28.1797 10.5717 28.0893 10.4526 28.0382 10.3154C27.987 10.1781 27.9775 10.0289 28.0108 9.88629L28.5899 7.3781C28.6051 7.31241 28.6022 7.24384 28.5815 7.17968C28.5607 7.11553 28.523 7.05821 28.4722 7.01383L26.5399 5.32544C26.4287 5.22964 26.3484 5.10315 26.3088 4.96183C26.2693 4.82052 26.2724 4.67068 26.3177 4.53112C26.363 4.39155 26.4485 4.26848 26.5635 4.17734C26.6785 4.0862 26.8179 4.03106 26.9641 4.01883L29.5081 3.7987C29.5758 3.79283 29.6405 3.76856 29.6954 3.72851C29.7503 3.68846 29.7932 3.63416 29.8194 3.57149L30.8128 1.20149C30.8693 1.06628 30.9645 0.950795 31.0864 0.869566C31.2084 0.788337 31.3516 0.744996 31.4982 0.744996C31.6447 0.744996 31.7879 0.788337 31.9099 0.869566C32.0318 0.950795 32.127 1.06628 32.1835 1.20149L33.1802 3.57187C33.2066 3.6344 33.2495 3.68854 33.3044 3.72845C33.3592 3.76836 33.424 3.79252 33.4916 3.79833L36.0326 4.01734C36.1782 4.03022 36.3168 4.08566 36.4311 4.17675ZM31.4982 1.49499L31.4989 1.49537V1.49462L31.4982 1.49499Z" fill="#FF541F"/>
<g clip-path="url(#clip6_0_669)">
<g clip-path="url(#clip7_0_669)">
<path d="M49.4482 4.53017C49.3562 4.24582 49.1034 4.04405 48.8054 4.01766L46.0402 3.77928L44.9565 1.20139C44.8415 0.924696 44.5708 0.74421 44.2711 0.74421C43.9714 0.74421 43.7007 0.924696 43.5858 1.20139L42.5054 3.77928L39.7368 4.01936C39.438 4.04405 39.1834 4.24582 39.0906 4.53102C38.9979 4.81622 39.0855 5.12952 39.3129 5.32533L41.4131 7.16085L40.784 9.88687C40.7159 10.178 40.8291 10.482 41.0709 10.6582C41.3135 10.8344 41.637 10.848 41.8933 10.694L44.2677 9.25006L46.6472 10.694C46.9035 10.848 47.2279 10.8344 47.4696 10.6582C47.7123 10.482 47.8255 10.178 47.7574 9.88687L47.1283 7.15829L49.2285 5.32533C49.455 5.12867 49.5418 4.81537 49.4482 4.53017ZM48.7399 4.76259L46.6404 6.5947C46.4318 6.77603 46.3408 7.05783 46.4038 7.32686L47.0346 10.0563L44.6568 8.61325C44.421 8.46937 44.1238 8.46937 43.8872 8.61325L41.5119 10.0563L42.1385 7.32856C42.2015 7.05953 42.1104 6.77859 41.9027 6.59725L39.8015 4.76514V4.76174L42.5693 4.52166C42.8443 4.49782 43.0843 4.32329 43.1908 4.06789L44.2711 1.49425L45.3515 4.06789C45.4579 4.32329 45.698 4.49782 45.973 4.52251L48.7407 4.76174V4.76429L48.7399 4.76259Z" fill="white" fill-opacity="0.2"/>
</g>
</g>
<g clip-path="url(#clip8_0_669)">
<path fill-rule="evenodd" clip-rule="evenodd" d="M49.2039 4.17683C49.3182 4.26789 49.4032 4.39056 49.4483 4.52955C49.4942 4.66911 49.4979 4.81914 49.4588 4.96077C49.4197 5.1024 49.3396 5.2293 49.2285 5.32551L47.2965 7.0113C47.2457 7.05564 47.2079 7.11294 47.1871 7.1771C47.1663 7.24125 47.1633 7.30985 47.1785 7.37557L47.7573 9.88599C47.7906 10.0286 47.7812 10.1779 47.7301 10.3152C47.679 10.4525 47.5886 10.5717 47.4701 10.6579C47.3517 10.7441 47.2105 10.7934 47.0641 10.7997C46.9178 10.8061 46.7728 10.7691 46.6473 10.6935L44.461 9.36752C44.4027 9.33221 44.3359 9.31354 44.2678 9.31354C44.1997 9.31354 44.1329 9.33221 44.0747 9.36752L41.8936 10.6935C41.7681 10.7691 41.6232 10.806 41.4769 10.7997C41.3306 10.7933 41.1894 10.744 41.071 10.6579C40.9525 10.5718 40.8621 10.4527 40.811 10.3155C40.7599 10.1782 40.7504 10.029 40.7836 9.88636L41.3628 7.37818C41.378 7.31249 41.375 7.24391 41.3543 7.17976C41.3336 7.11561 41.2958 7.05828 41.2451 7.0139L39.3127 5.32551C39.2016 5.22972 39.1212 5.10322 39.0817 4.96191C39.0421 4.8206 39.0452 4.67076 39.0905 4.53119C39.1359 4.39163 39.2214 4.26856 39.3364 4.17742C39.4514 4.08628 39.5907 4.03113 39.737 4.0189L42.2809 3.79877C42.3486 3.79291 42.4134 3.76863 42.4683 3.72859C42.5232 3.68854 42.5661 3.63424 42.5923 3.57157L43.5857 1.20157C43.6421 1.06636 43.7373 0.950872 43.8593 0.869643C43.9812 0.788415 44.1245 0.745073 44.271 0.745073C44.4175 0.745073 44.5608 0.788415 44.6827 0.869643C44.8047 0.950872 44.8999 1.06636 44.9563 1.20157L45.9531 3.57194C45.9794 3.63447 46.0223 3.68862 46.0772 3.72853C46.1321 3.76844 46.1968 3.7926 46.2644 3.7984L48.8054 4.01741C48.951 4.0303 49.0896 4.08574 49.2039 4.17683ZM44.271 1.49507L44.2718 1.49544V1.4947L44.271 1.49507Z" fill="#FF541F"/>
</g>
<g clip-path="url(#clip9_0_669)">
<path d="M62.2144 4.53003C62.1224 4.24568 61.8696 4.04391 61.5716 4.01752L58.8064 3.77914L57.7227 1.20125C57.6077 0.924558 57.337 0.744071 57.0373 0.744071C56.7376 0.744071 56.4669 0.924558 56.352 1.20125L55.2716 3.77914L52.503 4.01922C52.2042 4.04391 51.9496 4.24568 51.8568 4.53088C51.764 4.81608 51.8517 5.12938 52.079 5.32519L54.1793 7.16071L53.5502 9.88673C53.4821 10.1779 53.5953 10.4818 53.8371 10.6581C54.0797 10.8343 54.4032 10.8479 54.6595 10.6938L57.0339 9.24992L59.4134 10.6938C59.6697 10.8479 59.9941 10.8343 60.2358 10.6581C60.4785 10.4818 60.5917 10.1779 60.5236 9.88673L59.8945 7.15815L61.9947 5.32519C62.2212 5.12853 62.308 4.81523 62.2144 4.53003ZM61.5061 4.76245L59.4066 6.59456C59.198 6.7759 59.107 7.05769 59.17 7.32672L59.8008 10.0562L57.423 8.61311C57.1872 8.46923 56.89 8.46923 56.6534 8.61311L54.2781 10.0562L54.9047 7.32842C54.9677 7.0594 54.8766 6.77845 54.6689 6.59711L52.5677 4.765V4.7616L55.3355 4.52152C55.6105 4.49768 55.8505 4.32315 55.957 4.06775L57.0373 1.49411L58.1177 4.06775C58.2241 4.32315 58.4642 4.49768 58.7392 4.52237L61.5069 4.7616V4.76415L61.5061 4.76245Z" fill="white" fill-opacity="0.2"/>
</g>
<path fill-rule="evenodd" clip-rule="evenodd" d="M61.9701 4.17675C62.0844 4.26782 62.1694 4.39048 62.2145 4.52948C62.2604 4.66903 62.2641 4.81906 62.225 4.96069C62.1859 5.10232 62.1058 5.22922 61.9947 5.32544L60.0627 7.01122C60.0119 7.05556 59.9741 7.11286 59.9533 7.17702C59.9325 7.24117 59.9295 7.30977 59.9447 7.37549L60.5235 9.88591C60.5568 10.0286 60.5474 10.1779 60.4963 10.3151C60.4452 10.4524 60.3548 10.5716 60.2363 10.6578C60.1179 10.744 59.9767 10.7933 59.8303 10.7997C59.684 10.806 59.539 10.769 59.4135 10.6934L57.2272 9.36744C57.1689 9.33213 57.1021 9.31346 57.034 9.31346C56.9659 9.31346 56.8991 9.33213 56.8409 9.36744L54.6597 10.6934C54.5343 10.769 54.3894 10.8059 54.2431 10.7996C54.0968 10.7933 53.9556 10.744 53.8372 10.6578C53.7187 10.5717 53.6283 10.4526 53.5772 10.3154C53.5261 10.1781 53.5166 10.0289 53.5498 9.88629L54.129 7.3781C54.1442 7.31241 54.1412 7.24384 54.1205 7.17968C54.0998 7.11553 54.062 7.05821 54.0113 7.01383L52.0789 5.32544C51.9678 5.22964 51.8874 5.10315 51.8479 4.96183C51.8083 4.82052 51.8114 4.67068 51.8567 4.53112C51.9021 4.39155 51.9876 4.26848 52.1026 4.17734C52.2176 4.0862 52.3569 4.03106 52.5032 4.01883L55.0471 3.7987C55.1148 3.79283 55.1796 3.76856 55.2345 3.72851C55.2894 3.68846 55.3323 3.63416 55.3585 3.57149L56.3519 1.20149C56.4083 1.06628 56.5035 0.950795 56.6255 0.869566C56.7474 0.788337 56.8907 0.744996 57.0372 0.744996C57.1837 0.744996 57.327 0.788337 57.4489 0.869566C57.5709 0.950795 57.6661 1.06628 57.7225 1.20149L58.7193 3.57187C58.7456 3.6344 58.7885 3.68854 58.8434 3.72845C58.8983 3.76836 58.963 3.79252 59.0306 3.79833L61.5716 4.01734C61.7172 4.03022 61.8558 4.08566 61.9701 4.17675ZM57.0372 1.49499L57.0379 1.49537V1.49462L57.0372 1.49499Z" fill="#FF541F"/>
</g>
<defs>
<clipPath id="clip0_0_669">
<rect width="62.3948" height="11.8044" fill="white" transform="scale(1.0097)"/>
</clipPath>
<clipPath id="clip1_0_669">
<rect width="11.8044" height="11.8044" fill="white" transform="scale(1.0097)"/>
</clipPath>
<clipPath id="clip2_0_669">
<rect width="11.8044" height="11.8044" fill="white" transform="scale(1.0097)"/>
</clipPath>
<clipPath id="clip3_0_669">
<rect width="11.8044" height="11.8044" fill="white" transform="scale(1.0097)"/>
</clipPath>
<clipPath id="clip4_0_669">
<rect width="11.8044" height="11.8044" fill="white" transform="translate(12.7694) scale(1.0097)"/>
</clipPath>
<clipPath id="clip5_0_669">
<rect width="11.8044" height="11.8044" fill="white" transform="translate(25.539) scale(1.0097)"/>
</clipPath>
<clipPath id="clip6_0_669">
<rect width="11.8044" height="11.8044" fill="white" transform="translate(38.3117 9.24408e-05) scale(1.0097)"/>
</clipPath>
<clipPath id="clip7_0_669">
<rect width="11.8044" height="11.8044" fill="white" transform="translate(38.3117 0.000138661) scale(1.0097)"/>
</clipPath>
<clipPath id="clip8_0_669">
<rect width="11.8044" height="11.8044" fill="white" transform="translate(38.3117 9.24408e-05) scale(1.0097)"/>
</clipPath>
<clipPath id="clip9_0_669">
<rect width="11.8044" height="11.8044" fill="white" transform="translate(51.0806) scale(1.0097)"/>
</clipPath>
</defs>
</svg>
